<svg width="24" height="24" viewBox="0 0 24 24" fill="none" xmlns="http://www.w3.org/2000/svg">
<g clip-path="url(#clip0)">
<path fill-rule="evenodd" clip-rule="evenodd" d="M12 4C4.063 4 -0.012001 12 -0.012001 12C-0.012001 12 3.063 20 12 20C20.093 20 24.011 12.031 24.011 12.031C24.011 12.031 20.062 4 12 4ZM12.018 17C9.116 17 7.018 14.812 7.018 12C7.018 9.187 9.116 7 12.018 7C14.92 7 17.018 9.187 17.018 12C17.018 14.812 14.92 17 12.018 17ZM12.018 9C10.36 9.003 9.018 10.393 9.018 12C9.018 13.606 10.36 15 12.018 15C13.676 15 15.018 13.605 15.018 12C15.018 10.392 13.676 8.997 12.018 9Z" fill="#96BF24"/>
</g>
<defs>
<clipPath id="clip0">
<rect width="24" height="24" fill="white"/>
</clipPath>
</defs>
</svg>
