<svg width="26" height="26" viewBox="0 0 26 26" fill="none" xmlns="http://www.w3.org/2000/svg">
<path d="M16.8036 14.4605C18.8857 13.1794 20.2812 10.8882 20.2812 8.27197C20.2812 4.26221 17.0146 1 13 1C8.98535 1 5.71875 4.26221 5.71875 8.27197C5.71875 10.8882 7.11432 13.1794 9.19641 14.4605C4.70062 15.4677 1.5459 18.2189 1.5459 21.5483C1.5459 24.2729 8.74609 25 13 25C17.2539 25 24.4541 24.2729 24.4541 21.5483C24.4541 18.2189 21.2994 15.4677 16.8036 14.4605ZM7.21875 8.27197C7.21875 5.08936 9.8125 2.5 13 2.5C16.1875 2.5 18.7812 5.08936 18.7812 8.27197C18.7812 11.4546 16.1875 14.0435 13 14.0435C9.8125 14.0435 7.21875 11.4546 7.21875 8.27197ZM13 23.5C6.88501 23.5 3.22461 22.21 3.04633 21.5433C3.05096 18.2346 7.51459 15.5435 13 15.5435C18.4849 15.5435 22.9481 18.2341 22.9536 21.5423C22.7798 22.2086 19.119 23.5 13 23.5Z" fill="#96BF24"/>
</svg>
